<svg id="Ebene_1" data-name="Ebene 1" xmlns="http://www.w3.org/2000/svg" viewBox="0 0 3840 2160"><defs><style>.cls-1{fill:#5ac878;}.cls-2{fill:#00c878;opacity:0.6;}.cls-3{fill:#5ac8ff;opacity:0;}.cls-4{font-size:450px;font-family:MyriadPro-Regular, Myriad Pro;letter-spacing:0.09em;}.cls-5{letter-spacing:0.09em;}.cls-6{letter-spacing:0.08em;}.cls-7{letter-spacing:0.09em;}</style></defs><title>Zeichenfläche 1</title><path class="cls-1" d="M1200.5,753.5c-162.24,481.74-975.6,444-1001,693-22.23,217.9,563.77,609.09,1001,463,446.77-149.28,440.29-560,838.5-680.5,526.93-159.49,977.15,575.7,1338.5,409.5,292.15-134.37,358.66-916.25,66-1127-362.88-261.33-1068.89,506-1668,185-251.53-134.76-390.78-411.3-499-360C1190.51,377.26,1266.5,557.53,1200.5,753.5Z"/><path class="cls-2" d="M1795.38,1555C839.64,1120.11,579.07,888.62,434.67,588.51c-20.08-41.72-162.25-337.2-67.2-422.61,130.86-117.59,504,349.32,1091.93,433.73,741.75,106.51,1108.5-498.77,1453.67-304.72,409.69,230.33,407.33,1372.22-37,1601.47C2724.43,1974.64,2412.68,1835.81,1795.38,1555Z"/><path class="cls-3" d="M431,873.34C379.13,751.89,1175.79,97.6,2143.67,121.44,2398,127.7,2868.15,139.28,3068,448.53c344.52,533.19-372.73,1551.7-616,1493.19-194.73-46.84,39.44-753.8-362.52-1100.14C1565.09,389.78,488.8,1008.91,431,873.34Z"/><text class="cls-4" transform="translate(88.48 1130.65)">S<tspan class="cls-5" x="263.7" y="0">chuldners Lis</tspan><tspan class="cls-6" x="3223.76" y="0">t</tspan><tspan class="cls-7" x="3409.16" y="0">e</tspan></text></svg>