<svg id="Ebene_1" data-name="Ebene 1" xmlns="http://www.w3.org/2000/svg" viewBox="0 0 3284 1833.35"><defs><style>.cls-1{fill:#727272;}.cls-2{fill:#ed1414;opacity:0.6;}</style></defs><title>banner_gray</title><path class="cls-1" d="M1140.94,684c-155.16,499.63-933.06,460.5-957.35,718.72-21.26,226,539.19,631.7,957.35,480.19,427.3-154.82,421.09-580.76,802-705.76,504-165.41,934.55,597.07,1280.14,424.7,279.41-139.36,343-950.26,63.12-1168.83C2939.09,162,2263.86,957.77,1690.87,624.86,1450.31,485.1,1317.13,198.29,1213.63,251.5,1131.39,293.78,1204.06,480.73,1140.94,684Z" transform="translate(-183 -163.65)"/><path class="cls-2" d="M1601.2,1435.31c-635.61-475-935.69-428.72-1123.69-839.6-60.72-132.72-126.44-351-56.06-419.56C528.64,71.7,935.75,657.07,1465.77,626,1907.54,600.06,1997,165.07,2495.43,181.43c68.67,2.26,379.11,12.45,559.5,257.21,116.19,157.65,121.1,334.85,126.24,520.63,2.28,82.27,15.63,844.76-360.46,1011.58-48.61,21.57-137.42,48.12-347.28-4.53C2097.42,1872,1914.23,1669.23,1601.2,1435.31Z" transform="translate(-183 -163.65)"/></svg>